# xmcd
#
# Track frame offsets: 
#        150
#        12569
#        27123
#        46131
#        66176
#        83570
#        99545
#        117566
#        132650
#        148473
#        166875
#        175663
#        187923
#        199921
#        216470
#        231538
#        249944
#        267649
#
# Disc length: 3698 seconds
#
# Revision: 0
# Processed by: cddbd v1.5.2PL0 Copyright (c) Steve Scherf et al.
# Submitted via: ExactAudioCopyFreeDBPlugin 1.0
#
DISCID=100e7012
DTITLE=L'Artiseur - Mal être de sentiments
DYEAR=2015
DGENRE=Hip-Hop
TTITLE0=Intro
TTITLE1=Génération
TTITLE2=Trouver ma voie
TTITLE3=Masque social ft Pragz
TTITLE4=Des soirs comme ça
TTITLE5=On perds notre temps ft Kiza
TTITLE6=Still dreamin' ft Ghost Dest
TTITLE7=La maladie du rap ft- Vinz
TTITLE8=S.K.I.N.
TTITLE9=Vieux jours ft Francky
TTITLE10=Interlude (Take me away)
TTITLE11=Si tu savais ft Pragz
TTITLE12=54 vérités
TTITLE13=Dernière chance ft Skikdimé
TTITLE14=Amitié boulversée
TTITLE15=Flashback
TTITLE16=Les rues de ma ville
TTITLE17=A force
EXTD=
EXTT0=
EXTT1=
EXTT2=
EXTT3=
EXTT4=
EXTT5=
EXTT6=
EXTT7=
EXTT8=
EXTT9=
EXTT10=
EXTT11=
EXTT12=
EXTT13=
EXTT14=
EXTT15=
EXTT16=
EXTT17=
PLAYORDER=
